# Blender v2.79 (sub 0) OBJ File: 'gameboard (1).blend'
# www.blender.org
o Chess_Board_Cube
v 8.999996 -0.250000 -8.999995
v 8.999996 -0.250000 8.999996
v -8.999997 -0.250000 8.999994
v -8.999993 -0.250000 -8.999999
v 6.803364 0.690176 -6.803358
v 6.803357 0.690176 6.803366
v -6.803364 0.690176 6.803360
v -6.803362 0.690176 -6.803361
v -6.803363 0.816911 -0.000001
v -0.000004 0.816911 6.803362
v 0.000001 0.816911 -6.803359
v 6.803361 0.816911 0.000004
v 6.803364 0.816911 -6.803358
v 6.803357 0.816911 6.803366
v -6.803362 0.816911 -6.803361
v -6.803364 0.816911 6.803360
v 8.999999 0.127096 -8.999992
v 8.392474 0.371740 -8.392466
v 8.817494 0.171585 -8.817488
v 8.654390 0.222640 -8.654383
v 8.522419 0.275783 -8.522412
v 8.431611 0.326976 -8.431603
v 8.392465 0.371740 8.392475
v 8.999992 0.127096 9.000000
v 8.431602 0.326976 8.431612
v 8.522410 0.275783 8.522421
v 8.654382 0.222640 8.654391
v 8.817487 0.171585 8.817495
v -8.999995 0.127096 -8.999997
v -8.392469 0.371740 -8.392469
v -8.817491 0.171585 -8.817492
v -8.654387 0.222640 -8.654387
v -8.522415 0.275783 -8.522416
v -8.431607 0.326976 -8.431607
v -8.392473 0.371740 8.392467
v -8.999999 0.127096 8.999993
v -8.431610 0.326976 8.431604
v -8.522419 0.275783 8.522413
v -8.654390 0.222640 8.654384
v -8.817494 0.171585 8.817489
v -0.000001 0.816911 0.000002
v -3.401682 0.816911 0.000001
v 3.401683 0.816911 -6.803358
v -0.000003 0.816911 3.401682
v 3.401680 0.816911 0.000003
v -6.803364 0.816911 3.401680
v -0.000000 0.816911 -3.401679
v 3.401677 0.816911 6.803364
v 6.803362 0.816911 -3.401677
v 6.803359 0.816911 3.401685
v -3.401680 0.816911 -6.803360
v -3.401684 0.816911 6.803361
v -6.803362 0.816911 -3.401681
v -3.401681 0.816911 -3.401680
v 3.401681 0.816911 -3.401678
v -3.401683 0.816911 3.401681
v 3.401678 0.816911 3.401683
v 1.700839 0.816911 0.000002
v -1.700842 0.816911 0.000001
v 1.700842 0.816911 -6.803359
v -0.000003 0.816911 5.102522
v -0.000002 0.816911 1.700842
v 5.102524 0.816911 -6.803358
v 5.102520 0.816911 0.000003
v -6.803363 0.816911 1.700840
v -5.102523 0.816911 0.000000
v -0.000001 0.816911 -1.700839
v 1.700836 0.816911 6.803363
v 6.803361 0.816911 -1.700837
v 6.803358 0.816911 5.102525
v -5.102521 0.816911 -6.803361
v -5.102524 0.816911 6.803360
v -6.803362 0.816911 -5.102521
v -6.803364 0.816911 5.102520
v 0.000000 0.816911 -5.102519
v 5.102517 0.816911 6.803364
v 6.803363 0.816911 -5.102518
v 6.803360 0.816911 1.700844
v -1.700840 0.816911 -6.803360
v -1.700844 0.816911 6.803362
v -6.803363 0.816911 -1.700841
v -3.401682 0.816911 -1.700840
v -3.401681 0.816911 -5.102520
v -1.700841 0.816911 -3.401679
v -5.102522 0.816911 -3.401680
v 3.401681 0.816911 -1.700837
v 3.401682 0.816911 -5.102518
v 5.102522 0.816911 -3.401677
v 1.700840 0.816911 -3.401678
v -3.401684 0.816911 5.102521
v -3.401683 0.816911 1.700841
v -1.700843 0.816911 3.401681
v -5.102524 0.816911 3.401680
v 3.401677 0.816911 5.102524
v 3.401679 0.816911 1.700843
v 5.102519 0.816911 3.401684
v 1.700838 0.816911 3.401683
v 1.700838 0.816911 1.700842
v 5.102520 0.816911 1.700844
v 5.102518 0.816911 5.102524
v -5.102523 0.816911 1.700840
v -1.700842 0.816911 1.700841
v -1.700844 0.816911 5.102522
v 1.700841 0.816911 -5.102519
v 5.102523 0.816911 -5.102518
v 5.102520 0.816911 -1.700837
v -5.102522 0.816911 -5.102520
v -1.700840 0.816911 -5.102520
v -1.700841 0.816911 -1.700839
v -5.102522 0.816911 -1.700840
v 1.700840 0.816911 -1.700838
v -5.102524 0.816911 5.102520
v 1.700837 0.816911 5.102523
vt 0.000000 0.000000
vt 0.000000 0.000000
vt 0.000000 0.000000
vt 0.503985 0.495273
vt 0.503985 0.495224
vt 0.504118 0.495076
vt 0.134845 0.864322
vt 0.942353 0.995293
vt 0.053107 0.995293
vt 0.134404 0.136014
vt 0.939198 0.004203
vt 0.866597 0.135272
vt 0.132898 0.864708
vt 0.005882 0.064725
vt 0.133458 0.134308
vt 0.503983 0.495074
vt 0.503461 0.494680
vt 0.503983 0.494680
vt 0.503460 0.495074
vt 0.502937 0.494680
vt 0.865355 0.135641
vt 0.995294 0.938903
vt 0.865128 0.866258
vt 0.503461 0.494678
vt 0.503983 0.494284
vt 0.503983 0.494678
vt 0.503986 0.494877
vt 0.503986 0.494828
vt 0.504119 0.494680
vt 0.503658 0.495208
vt 0.503609 0.495208
vt 0.503461 0.495075
vt 0.503134 0.495208
vt 0.503085 0.495208
vt 0.502937 0.495075
vt 0.503986 0.494678
vt 0.504474 0.494632
vt 0.504473 0.494678
vt 0.503849 0.495656
vt 0.504341 0.495603
vt 0.504339 0.495656
vt 0.503832 0.495437
vt 0.503333 0.495381
vt 0.503836 0.495381
vt 0.503338 0.495601
vt 0.503845 0.495548
vt 0.503840 0.495601
vt 0.503862 0.495807
vt 0.504379 0.495760
vt 0.504374 0.495807
vt 0.503857 0.495759
vt 0.504374 0.495712
vt 0.503333 0.495547
vt 0.503840 0.495493
vt 0.503333 0.495323
vt 0.503832 0.495267
vt 0.503836 0.495323
vt 0.503846 0.495601
vt 0.504339 0.495548
vt 0.503985 0.494379
vt 0.504473 0.494332
vt 0.504474 0.494379
vt 0.503367 0.495807
vt 0.503856 0.495760
vt 0.503854 0.495807
vt 0.503849 0.495547
vt 0.504341 0.495493
vt 0.504339 0.495547
vt 0.503337 0.495266
vt 0.503836 0.495210
vt 0.503832 0.495266
vt 0.503338 0.495492
vt 0.503845 0.495438
vt 0.503840 0.495492
vt 0.503338 0.495759
vt 0.503856 0.495712
vt 0.504473 0.494284
vt 0.503985 0.494331
vt 0.503986 0.494284
vt 0.503825 0.495657
vt 0.503333 0.495711
vt 0.503335 0.495657
vt 0.503832 0.495324
vt 0.503333 0.495380
vt 0.503840 0.495603
vt 0.503333 0.495656
vt 0.503338 0.495603
vt 0.503834 0.495657
vt 0.504352 0.495704
vt 0.503829 0.495704
vt 0.503460 0.494678
vt 0.502937 0.494284
vt 0.503460 0.494284
vt 0.591511 0.408315
vt 0.683170 0.316629
vt 0.683170 0.408315
vt 0.499853 0.500000
vt 0.591511 0.500000
vt 0.774828 0.408315
vt 0.866487 0.316629
vt 0.866487 0.408315
vt 0.683170 0.500000
vt 0.774828 0.500000
vt 0.774828 0.224944
vt 0.866487 0.133258
vt 0.866487 0.224944
vt 0.774828 0.316629
vt 0.316536 0.408315
vt 0.224878 0.316629
vt 0.316536 0.316629
vt 0.224878 0.500000
vt 0.133219 0.408315
vt 0.224878 0.408315
vt 0.408195 0.408315
vt 0.499853 0.316629
vt 0.499853 0.408315
vt 0.316536 0.500000
vt 0.408195 0.500000
vt 0.408194 0.224944
vt 0.499853 0.133258
vt 0.499853 0.224944
vt 0.408195 0.316629
vt 0.591511 0.775056
vt 0.683170 0.683371
vt 0.683170 0.775056
vt 0.499853 0.866742
vt 0.591511 0.866742
vt 0.774828 0.775056
vt 0.866487 0.683371
vt 0.866487 0.775056
vt 0.683170 0.866742
vt 0.774828 0.866742
vt 0.774828 0.591685
vt 0.866487 0.500000
vt 0.866487 0.591685
vt 0.774828 0.683371
vt 0.224878 0.775056
vt 0.316536 0.683371
vt 0.316536 0.775056
vt 0.133219 0.866742
vt 0.224878 0.866742
vt 0.408195 0.775056
vt 0.499853 0.683371
vt 0.499853 0.775056
vt 0.408195 0.866742
vt 0.408195 0.591685
vt 0.499853 0.591685
vt 0.408195 0.683371
vt 0.224878 0.591685
vt 0.316536 0.591685
vt 0.133219 0.683371
vt 0.224878 0.683371
vt 0.591511 0.591685
vt 0.683170 0.591685
vt 0.591511 0.683371
vt 0.316536 0.224944
vt 0.224878 0.133258
vt 0.316536 0.133258
vt 0.133219 0.224944
vt 0.224878 0.224944
vt 0.591511 0.224944
vt 0.683170 0.133258
vt 0.683170 0.224944
vt 0.591511 0.316629
vt 0.133219 0.775056
vt 0.133219 0.133258
vt 0.866487 0.866742
vt 0.316536 0.866742
vt 0.774828 0.133258
vt 0.408194 0.133258
vt 0.133219 0.316629
vt 0.133219 0.500000
vt 0.000000 0.000000
vt 0.503985 0.495076
vt 0.503985 0.495125
vt 0.504118 0.495471
vt 0.503985 0.495174
vt 0.503985 0.495471
vt 0.503985 0.495421
vt 0.503985 0.495372
vt 0.503985 0.495323
vt 0.865320 0.863451
vt 0.061543 0.003736
vt 0.005882 0.943513
vt 0.502937 0.495074
vt 0.995294 0.044719
vt 0.503461 0.494284
vt 0.503986 0.494680
vt 0.503986 0.494729
vt 0.503986 0.494778
vt 0.503985 0.494976
vt 0.503986 0.494976
vt 0.503986 0.494926
vt 0.503461 0.495208
vt 0.503510 0.495208
vt 0.503856 0.495075
vt 0.503560 0.495208
vt 0.503856 0.495208
vt 0.503806 0.495208
vt 0.503757 0.495208
vt 0.503708 0.495208
vt 0.502937 0.495208
vt 0.502986 0.495208
vt 0.503332 0.495075
vt 0.503036 0.495208
vt 0.503332 0.495207
vt 0.503233 0.495209
vt 0.503233 0.495207
vt 0.503184 0.495208
vt 0.503985 0.494632
vt 0.503846 0.495603
vt 0.503337 0.495437
vt 0.503333 0.495548
vt 0.503857 0.495760
vt 0.503862 0.495712
vt 0.503338 0.495493
vt 0.503337 0.495267
vt 0.503849 0.495548
vt 0.503986 0.494332
vt 0.503366 0.495760
vt 0.503846 0.495493
vt 0.503333 0.495210
vt 0.503333 0.495438
vt 0.503333 0.495712
vt 0.504474 0.494331
vt 0.503828 0.495711
vt 0.503836 0.495380
vt 0.503845 0.495656
vt 0.504346 0.495657
vt 0.502937 0.494678
vt 0.133219 0.591685
vt 0.591511 0.133258
vn 0.0000 -1.0000 0.0000
vn -1.0000 0.0000 -0.0000
vn 0.0000 0.9805 -0.1965
vn -0.0000 0.9805 0.1965
vn -0.1965 0.9805 -0.0000
vn 1.0000 -0.0000 0.0000
vn -0.0000 -0.0000 1.0000
vn 0.1965 0.9805 0.0000
vn 0.0000 0.0000 -1.0000
vn 0.7528 0.6582 0.0000
vn 0.4911 0.8711 0.0000
vn 0.3735 0.9276 0.0000
vn 0.2987 0.9543 0.0000
vn 0.2368 0.9716 0.0000
vn 0.0000 0.9716 -0.2368
vn 0.0000 0.9543 -0.2987
vn 0.0000 0.9276 -0.3735
vn 0.0000 0.8711 -0.4911
vn 0.0000 0.6582 -0.7528
vn -0.0000 0.6582 0.7528
vn -0.0000 0.8711 0.4911
vn -0.0000 0.9276 0.3735
vn -0.0000 0.9543 0.2987
vn -0.0000 0.9715 0.2368
vn -0.7528 0.6582 -0.0000
vn -0.4911 0.8711 -0.0000
vn -0.3735 0.9276 -0.0000
vn -0.2987 0.9543 -0.0000
vn -0.2368 0.9716 -0.0000
vn 0.0000 1.0000 0.0000
vn -0.0000 0.9716 0.2368
s off
f 2/1/1 4/2/1 1/3/1
f 9/4/2 81/5/2 8/6/2
f 8/7/3 18/8/3 30/9/3
f 7/10/4 23/11/4 6/12/4
f 8/13/5 35/14/5 7/15/5
f 17/16/6 2/17/6 1/18/6
f 24/19/7 3/20/7 2/17/7
f 6/21/8 18/22/8 5/23/8
f 3/24/2 29/25/2 4/26/2
f 11/27/9 60/28/9 5/29/9
f 10/30/7 80/31/7 7/32/7
f 12/33/6 78/34/6 6/35/6
f 23/36/10 22/37/10 18/38/10
f 25/39/11 21/40/11 22/41/11
f 21/42/12 27/43/12 20/44/12
f 27/45/13 19/46/13 20/47/13
f 28/48/14 17/49/14 19/50/14
f 29/51/15 19/52/15 17/49/15
f 31/53/16 20/54/16 19/46/16
f 32/55/17 21/56/17 20/57/17
f 33/58/18 22/59/18 21/40/18
f 34/60/19 18/61/19 22/62/19
f 35/63/20 25/64/20 23/65/20
f 37/66/21 26/67/21 25/68/21
f 38/69/22 27/70/22 26/71/22
f 39/72/23 28/73/23 27/74/23
f 40/75/24 24/76/24 28/48/24
f 30/77/25 37/78/25 35/79/25
f 34/80/26 38/81/26 37/82/26
f 33/83/27 39/84/27 38/69/27
f 32/85/28 40/86/28 39/87/28
f 40/88/29 29/89/29 36/90/29
f 1/91/9 29/92/9 17/93/9
f 98/94/30 57/95/30 95/96/30
f 41/97/30 98/94/30 58/98/30
f 99/99/30 50/100/30 78/101/30
f 45/102/30 99/99/30 64/103/30
f 100/104/30 14/105/30 70/106/30
f 57/95/30 100/104/30 96/107/30
f 91/108/30 93/109/30 56/110/30
f 66/111/30 65/112/30 101/113/30
f 102/114/30 44/115/30 62/116/30
f 42/117/30 102/114/30 59/118/30
f 103/119/30 10/120/30 61/121/30
f 56/110/30 103/119/30 92/122/30
f 104/123/30 55/124/30 87/125/30
f 11/126/30 104/123/30 60/127/30
f 105/128/30 49/129/30 77/130/30
f 43/131/30 105/128/30 63/132/30
f 106/133/30 12/134/30 69/135/30
f 55/124/30 106/133/30 88/136/30
f 107/137/30 54/138/30 83/139/30
f 15/140/30 107/137/30 71/141/30
f 108/142/30 47/143/30 75/144/30
f 79/145/30 83/139/30 108/142/30
f 109/146/30 41/97/30 67/147/30
f 54/138/30 109/146/30 84/148/30
f 110/149/30 42/117/30 82/150/30
f 53/151/30 110/149/30 85/152/30
f 111/153/30 45/102/30 86/154/30
f 47/143/30 111/153/30 89/155/30
f 90/156/30 72/157/30 52/158/30
f 93/109/30 74/159/30 112/160/30
f 113/161/30 48/162/30 94/163/30
f 44/115/30 113/161/30 97/164/30
f 58/98/30 95/96/30 45/102/30
f 59/118/30 62/116/30 41/97/30
f 44/115/30 98/94/30 62/116/30
f 42/117/30 101/113/30 91/108/30
f 58/98/30 67/147/30 41/97/30
f 89/155/30 75/144/30 47/143/30
f 59/118/30 82/150/30 42/117/30
f 84/148/30 83/139/30 54/138/30
f 47/143/30 109/146/30 67/147/30
f 85/152/30 82/150/30 54/138/30
f 64/103/30 86/154/30 45/102/30
f 88/136/30 87/125/30 55/124/30
f 89/155/30 86/154/30 55/124/30
f 92/122/30 91/108/30 56/110/30
f 92/122/30 61/121/30 44/115/30
f 56/110/30 112/160/30 90/156/30
f 96/107/30 95/96/30 57/95/30
f 97/164/30 94/163/30 57/95/30
f 85/152/30 73/165/30 53/151/30
f 112/160/30 16/166/30 72/157/30
f 63/132/30 77/130/30 13/167/30
f 71/141/30 83/139/30 51/168/30
f 10/120/30 113/161/30 61/121/30
f 64/103/30 78/101/30 12/134/30
f 76/169/30 94/163/30 48/162/30
f 103/119/30 52/158/30 80/170/30
f 88/136/30 69/135/30 49/129/30
f 96/107/30 70/106/30 50/100/30
f 60/127/30 87/125/30 43/131/30
f 93/109/30 65/112/30 46/171/30
f 110/149/30 9/172/30 66/111/30
f 11/126/30 108/142/30 75/144/30
f 2/1/1 3/173/1 4/2/1
f 15/174/2 8/6/2 73/175/2
f 8/6/2 7/176/2 9/4/2
f 73/175/2 8/6/2 53/177/2
f 7/176/2 16/178/2 74/179/2
f 46/180/2 65/181/2 7/176/2
f 65/181/2 9/4/2 7/176/2
f 7/176/2 74/179/2 46/180/2
f 53/177/2 8/6/2 81/5/2
f 8/7/3 5/182/3 18/8/3
f 7/10/4 35/183/4 23/11/4
f 8/13/5 30/184/5 35/14/5
f 17/16/6 24/19/6 2/17/6
f 24/19/7 36/185/7 3/20/7
f 6/21/8 23/186/8 18/22/8
f 3/24/2 36/187/2 29/25/2
f 13/188/9 5/29/9 63/189/9
f 5/29/9 8/6/9 11/27/9
f 63/189/9 5/29/9 43/190/9
f 8/6/9 15/174/9 71/191/9
f 51/192/9 79/193/9 8/6/9
f 79/193/9 11/27/9 8/6/9
f 8/6/9 71/191/9 51/192/9
f 43/190/9 5/29/9 60/28/9
f 16/194/7 7/32/7 72/195/7
f 7/32/7 6/196/7 10/30/7
f 72/195/7 7/32/7 52/197/7
f 6/196/7 14/198/7 76/199/7
f 48/200/7 68/201/7 6/196/7
f 68/201/7 10/30/7 6/196/7
f 6/196/7 76/199/7 48/200/7
f 52/197/7 7/32/7 80/31/7
f 14/202/6 6/35/6 70/203/6
f 6/35/6 5/204/6 12/33/6
f 70/203/6 6/35/6 50/205/6
f 5/204/6 13/206/6 77/207/6
f 49/208/6 69/209/6 5/204/6
f 69/209/6 12/33/6 5/204/6
f 5/204/6 77/207/6 49/208/6
f 50/205/6 6/35/6 78/34/6
f 23/36/10 25/210/10 22/37/10
f 25/39/11 26/211/11 21/40/11
f 21/42/12 26/212/12 27/43/12
f 27/45/13 28/213/13 19/46/13
f 28/48/14 24/214/14 17/49/14
f 29/51/15 31/215/15 19/52/15
f 31/53/16 32/216/16 20/54/16
f 32/55/17 33/217/17 21/56/17
f 33/58/18 34/218/18 22/59/18
f 34/60/19 30/219/19 18/61/19
f 35/63/20 37/220/20 25/64/20
f 37/66/21 38/221/21 26/67/21
f 38/69/22 39/222/22 27/70/22
f 39/72/23 40/223/23 28/73/23
f 40/75/31 36/224/31 24/76/31
f 30/77/25 34/225/25 37/78/25
f 34/80/26 33/226/26 38/81/26
f 33/83/27 32/227/27 39/84/27
f 32/85/28 31/228/28 40/86/28
f 40/88/29 31/229/29 29/89/29
f 1/91/9 4/230/9 29/92/9
f 98/94/30 97/164/30 57/95/30
f 41/97/30 62/116/30 98/94/30
f 99/99/30 96/107/30 50/100/30
f 45/102/30 95/96/30 99/99/30
f 100/104/30 76/169/30 14/105/30
f 57/95/30 94/163/30 100/104/30
f 91/108/30 101/113/30 93/109/30
f 66/111/30 9/172/30 65/112/30
f 102/114/30 92/122/30 44/115/30
f 42/117/30 91/108/30 102/114/30
f 103/119/30 80/170/30 10/120/30
f 56/110/30 90/156/30 103/119/30
f 104/123/30 89/155/30 55/124/30
f 11/126/30 75/144/30 104/123/30
f 105/128/30 88/136/30 49/129/30
f 43/131/30 87/125/30 105/128/30
f 106/133/30 64/103/30 12/134/30
f 55/124/30 86/154/30 106/133/30
f 107/137/30 85/152/30 54/138/30
f 15/140/30 73/165/30 107/137/30
f 108/142/30 84/148/30 47/143/30
f 79/145/30 51/168/30 83/139/30
f 109/146/30 59/118/30 41/97/30
f 54/138/30 82/150/30 109/146/30
f 110/149/30 66/111/30 42/117/30
f 53/151/30 81/231/30 110/149/30
f 111/153/30 58/98/30 45/102/30
f 47/143/30 67/147/30 111/153/30
f 90/156/30 112/160/30 72/157/30
f 93/109/30 46/171/30 74/159/30
f 113/161/30 68/232/30 48/162/30
f 44/115/30 61/121/30 113/161/30
f 58/98/30 98/94/30 95/96/30
f 59/118/30 102/114/30 62/116/30
f 44/115/30 97/164/30 98/94/30
f 42/117/30 66/111/30 101/113/30
f 58/98/30 111/153/30 67/147/30
f 89/155/30 104/123/30 75/144/30
f 59/118/30 109/146/30 82/150/30
f 84/148/30 108/142/30 83/139/30
f 47/143/30 84/148/30 109/146/30
f 85/152/30 110/149/30 82/150/30
f 64/103/30 106/133/30 86/154/30
f 88/136/30 105/128/30 87/125/30
f 89/155/30 111/153/30 86/154/30
f 92/122/30 102/114/30 91/108/30
f 92/122/30 103/119/30 61/121/30
f 56/110/30 93/109/30 112/160/30
f 96/107/30 99/99/30 95/96/30
f 97/164/30 113/161/30 94/163/30
f 85/152/30 107/137/30 73/165/30
f 112/160/30 74/159/30 16/166/30
f 63/132/30 105/128/30 77/130/30
f 71/141/30 107/137/30 83/139/30
f 10/120/30 68/232/30 113/161/30
f 64/103/30 99/99/30 78/101/30
f 76/169/30 100/104/30 94/163/30
f 103/119/30 90/156/30 52/158/30
f 88/136/30 106/133/30 69/135/30
f 96/107/30 100/104/30 70/106/30
f 60/127/30 104/123/30 87/125/30
f 93/109/30 101/113/30 65/112/30
f 110/149/30 81/231/30 9/172/30
f 11/126/30 79/145/30 108/142/30
